<svg xmlns="http://www.w3.org/2000/svg" width="1200" height="500" viewBox="0 0 1200 500" role="img" aria-label="Atelier de reliure">
  <title>Atelier de reliure</title>
  <rect width="1200" height="500" fill="#efe9dd"/>
  <rect x="0" y="360" width="1200" height="140" fill="#c8b89a"/>
  <rect x="90" y="150" width="240" height="210" fill="#8a6a45"/>
  <rect x="120" y="185" width="180" height="16" fill="#5d4730"/>
  <rect x="120" y="300" width="180" height="16" fill="#5d4730"/>
  <rect x="196" y="100" width="28" height="90" fill="#5d4730"/>
  <circle cx="210" cy="96" r="30" fill="#9a6a3a"/>
  <g>
    <rect x="430" y="250" width="150" height="26" fill="#7d8f6a"/>
    <rect x="440" y="224" width="150" height="26" fill="#9a6a3a"/>
    <rect x="428" y="198" width="150" height="26" fill="#5f7183"/>
    <rect x="446" y="172" width="150" height="26" fill="#a8574e"/>
  </g>
  <g transform="translate(760 210)">
    <path d="M0 0 L150 -28 L150 122 L0 150 Z" fill="#fbf7ef"/>
    <path d="M300 0 L150 -28 L150 122 L300 150 Z" fill="#efe6d4"/>
    <rect x="144" y="-30" width="12" height="182" fill="#9a6a3a"/>
  </g>
  <rect x="980" y="300" width="130" height="60" fill="#5d4730"/>
  <rect x="995" y="284" width="100" height="16" fill="#9a6a3a"/>
</svg>
